<?xml version="1.0" encoding="UTF-8" standalone="no"?>
<!-- Created with Inkscape (http://www.inkscape.org/) -->

<svg
   width="95.608551mm"
   height="104.57896mm"
   viewBox="0 0 95.608551 104.57896"
   version="1.1"
   id="svg5"
   xml:space="preserve"
   inkscape:version="1.2.1 (9c6d41e410, 2022-07-14)"
   sodipodi:docname="logotipo (1).svg"
   xmlns:inkscape="http://www.inkscape.org/namespaces/inkscape"
   xmlns:sodipodi="http://sodipodi.sourceforge.net/DTD/sodipodi-0.dtd"
   xmlns="http://www.w3.org/2000/svg"
   xmlns:svg="http://www.w3.org/2000/svg"><sodipodi:namedview
     id="namedview7"
     pagecolor="#ffffff"
     bordercolor="#666666"
     borderopacity="1.0"
     inkscape:showpageshadow="2"
     inkscape:pageopacity="0.0"
     inkscape:pagecheckerboard="0"
     inkscape:deskcolor="#d1d1d1"
     inkscape:document-units="mm"
     showgrid="false"
     inkscape:zoom="0.74564392"
     inkscape:cx="208.54458"
     inkscape:cy="140.81789"
     inkscape:window-width="1920"
     inkscape:window-height="1017"
     inkscape:window-x="-8"
     inkscape:window-y="-8"
     inkscape:window-maximized="1"
     inkscape:current-layer="layer1" /><defs
     id="defs2" /><g
     inkscape:label="Capa 1"
     inkscape:groupmode="layer"
     id="layer1"
     transform="translate(-79.103752,-55.439911)"><g
       id="g4669"
       transform="matrix(0.64000542,0,0,0.64000542,-109.56159,47.773659)"><path
         style="fill:#0e527b;fill-opacity:1;stroke:none;stroke-width:0.264583px;stroke-linecap:butt;stroke-linejoin:miter;stroke-opacity:1"
         d="m 312.17419,24.397773 2.12904,11.532257 -19.51613,4.790323 20.04838,98.290327 54.82259,36.37097 54.82257,-36.01613 19.69355,-99.000005 -19.16129,-4.435485 2.30646,-11.709676 -57.83871,-12.241936 z"
         id="path290" /><path
         style="fill:#f0f0f0;fill-opacity:1;stroke:none;stroke-width:0.241601px;stroke-linecap:butt;stroke-linejoin:miter;stroke-opacity:1"
         d="m 319.28099,29.26255 2.12152,11.417638 -19.06285,4.640355 18.12952,90.196177 49.3509,32.14719 49.17346,-32.17801 18.33777,-90.400664 -19.44851,-4.405048 1.9287,-11.224807 -50.15343,-11.001157 z"
         id="path290-7"
         sodipodi:nodetypes="ccccccccccc" /><path
         style="fill:#0e527b;fill-opacity:1;stroke:none;stroke-width:0.224939px;stroke-linecap:butt;stroke-linejoin:miter;stroke-opacity:1"
         d="m 324.33569,33.032974 1.91248,11.508396 -18.9875,4.357074 16.83263,84.660376 45.72785,29.33423 45.53128,-29.20611 16.69674,-84.542502 -18.9227,-4.540341 1.85842,-11.579773 -45.31457,-9.552457 z"
         id="path290-7-3"
         sodipodi:nodetypes="ccccccccccc" /><path
         id="path290-7-3-7"
         style="fill:#0e2e5e;fill-opacity:1;stroke:none;stroke-width:0.224939px;stroke-linecap:butt;stroke-linejoin:miter;stroke-opacity:1"
         d="m 370.04469,23.692898 44.92955,9.475908 -1.91254,11.508341 18.98747,4.35684 -16.83257,84.660473 -45.17191,28.97756 z" /><g
         id="g4584"
         transform="matrix(0.77476667,0,0,0.77476667,-27.400752,-4.8588659)"><path
           id="path1104"
           style="fill:#f0f0f0;fill-opacity:1;stroke:none;stroke-width:0.156059px;stroke-linecap:butt;stroke-linejoin:miter;stroke-opacity:1"
           d="m 511.4836,84.176857 -50.23049,21.243193 50.54443,22.08047 34.16467,-14.94688 -31.53971,-5.47303 c -0.63105,0.9223 -7.30159,1.13011 -6.28959,-3.4778 0.6725,-3.06212 7.11997,-3.56045 7.47374,0.2219 l 35.66369,6.40664 10.75769,-4.70645 z" /><path
           id="path1104-1"
           style="fill:#7367f0;fill-opacity:1;stroke:none;stroke-width:0.156059px;stroke-linecap:butt;stroke-linejoin:miter;stroke-opacity:1"
           d="m 461.49147,105.44626 -0.18593,0.0786 50.54443,22.08048 34.20215,-14.96335 -3.05472,-0.53036 -31.5138,10.88906 z m 100.4442,0.12192 -12.66484,4.37604 2.08942,0.37522 10.7202,-4.69 z" /><path
           style="fill:#f0f0f0;fill-opacity:1;stroke:none;stroke-width:0.156059px;stroke-linecap:butt;stroke-linejoin:miter;stroke-opacity:1"
           d="m 480.44112,118.24856 31.89251,13.83735 32.04052,-13.83735 0.22199,19.68308 c -0.50273,4.98098 -9.25556,10.90638 -16.87123,11.24748 -10.85941,0.48641 -14.77001,10.63045 -14.50331,10.72951 h -1.84993 c 0.25802,-3.23203 -7.22484,-10.76338 -13.68936,-10.65551 -5.12327,0.0855 -17.23363,-4.9208 -17.3152,-10.8775 z"
           id="path1885"
           sodipodi:nodetypes="ccccsccscc" /><path
           id="path1885-1"
           style="fill:#7367f0;fill-opacity:1;stroke:none;stroke-width:0.156059px;stroke-linecap:butt;stroke-linejoin:miter;stroke-opacity:1"
           d="m 480.38097,118.24856 -0.0741,20.127 c 0.0816,5.95669 12.19194,10.96297 17.31521,10.87748 6.46451,-0.10787 13.94729,7.42355 13.68927,10.65558 h 0.48129 c -1.95041,-6.11014 -3.19756,-12.92074 -15.22122,-14.09467 -5.18738,-0.50646 -12.11729,-4.26002 -13.08089,-8.84292 l -2.98919,-18.67004 z" /><path
           id="path1885-1-7"
           style="fill:#7367f0;fill-opacity:1;stroke:none;stroke-width:0.156059px;stroke-linecap:butt;stroke-linejoin:miter;stroke-opacity:1"
           d="m 544.52207,118.28641 0.0741,20.127 c -0.0816,5.95669 -12.19194,10.96297 -17.3152,10.87748 -6.46452,-0.10787 -13.94731,7.42355 -13.68928,10.65558 h -0.48129 c 1.95041,-6.11014 3.19756,-12.92074 15.22121,-14.09467 5.18739,-0.50646 12.11729,-4.26002 13.0809,-8.84292 l 2.98919,-18.67004 z" /></g></g><rect
       style="fill:#2d2d2d;fill-opacity:0;stroke:none;stroke-width:0.66"
       id="rect5521"
       width="640.31946"
       height="261.94885"
       x="4.9140844"
       y="2.9456987"
       rx="2.0072708"
       ry="2.5413702" /></g></svg>
