<?xml version="1.0" encoding="UTF-8" standalone="no"?>
<svg
   viewBox="0 0 850 750"
   version="1.1"
   id="svg371"
   sodipodi:docname="login-v3.svg"
   width="850"
   height="750"
   inkscape:version="1.2.1 (9c6d41e410, 2022-07-14)"
   xmlns:inkscape="http://www.inkscape.org/namespaces/inkscape"
   xmlns:sodipodi="http://sodipodi.sourceforge.net/DTD/sodipodi-0.dtd"
   xmlns="http://www.w3.org/2000/svg"
   xmlns:svg="http://www.w3.org/2000/svg">
  <defs
     id="defs375" />
  <sodipodi:namedview
     id="namedview373"
     pagecolor="#ffffff"
     bordercolor="#666666"
     borderopacity="1.0"
     inkscape:showpageshadow="2"
     inkscape:pageopacity="0.0"
     inkscape:pagecheckerboard="0"
     inkscape:deskcolor="#d1d1d1"
     showgrid="false"
     inkscape:zoom="0.83700001"
     inkscape:cx="309.43847"
     inkscape:cy="456.39187"
     inkscape:window-width="1920"
     inkscape:window-height="1017"
     inkscape:window-x="-8"
     inkscape:window-y="-8"
     inkscape:window-maximized="1"
     inkscape:current-layer="svg371" />
  <g
     id="g5260"
     transform="matrix(1.5241452,0,0,1.5241452,43.341803,-13.742786)">
    <g
       id="freepik--Floor--inject-51">
      <ellipse
         id="freepik--floor--inject-51"
         cx="253.87"
         cy="353.84"
         rx="233.73"
         ry="131.96001"
         style="fill:#f5f5f5" />
    </g>
    <g
       id="freepik--Shadows--inject-51">
      <path
         id="freepik--Shadow--inject-51"
         d="m 79.06,441.51 -7.17,-4.14 c -2.26,-1.31 -2.26,-3.42 0,-4.73 L 323.52,287.35 a 9.09,9.09 0 0 1 8.19,0 l 7.22,4.14 c 2.26,1.3 2.26,3.41 0,4.71 L 87.25,441.51 a 9.09,9.09 0 0 1 -8.19,0 z"
         style="fill:#e6e6e6" />
      <ellipse
         id="freepik--shadow--inject-51"
         cx="368.76001"
         cy="374.70001"
         rx="73.900002"
         ry="42.669998"
         style="fill:#e0e0e0" />
    </g>
    <g
       id="freepik--Plants--inject-51">
      <g
         id="freepik--plants--inject-51">
        <path
           d="m 91.66,421.24 c -1,-15.22 0.07,-30.69 -9.42,-51.69 -8,-17.62 -21.12,-31.5 -36.07,-32.58 -6.2,-0.45 -10.68,1 -13.29,5.41 -4.57,7.75 2.24,16.06 9.54,20.85 3.21,2.11 29.58,15.77 36.87,46.06 l 3.16,17.25 1,-0.59 z"
           style="fill:#61c0bf"
           id="path7" />
        <path
           d="m 91.66,421.24 c -1,-15.22 0.07,-30.69 -9.42,-51.69 -8,-17.62 -21.12,-31.5 -36.07,-32.58 -6.2,-0.45 -10.68,1 -13.29,5.41 -4.57,7.75 2.24,16.06 9.54,20.85 3.21,2.11 29.58,15.77 36.87,46.06 l 3.16,17.25 1,-0.59 z"
           style="opacity:0.25;fill:#ffffff"
           id="path9" />
        <path
           d="m 86.85,416 a 0.67,0.67 0 0 1 -0.57,-0.58 C 81.54,378.6 67.55,356.56 42,347.89 a 0.66,0.66 0 0 1 -0.34,-0.89 0.69,0.69 0 0 1 0.89,-0.34 c 25.77,8.23 40.25,31.29 45.05,68.63 A 0.67,0.67 0 0 1 87,416 Z"
           style="fill:#ffffff"
           id="path11" />
        <path
           d="m 77.49,429.51 c -1.08,-5.28 -3.92,-11.4 -14.67,-23.19 -9.28,-10.18 -23.75,-15.86 -26.58,-22.18 -3.4,-7.6 2.7,-14.58 14.34,-13.07 14,1.82 28.27,22.64 33.46,54.57 z"
           style="fill:#61c0bf"
           id="path13" />
        <path
           d="m 77.49,429.51 c -1.08,-5.28 -3.92,-11.4 -14.67,-23.19 -9.28,-10.18 -23.75,-15.86 -26.58,-22.18 -3.4,-7.6 2.7,-14.58 14.34,-13.07 14,1.82 28.27,22.64 33.46,54.57 z"
           style="opacity:0.65;fill:#ffffff"
           id="path15" />
        <path
           d="m 45.83,378.26 a 0.65,0.65 0 0 0 -0.79,0.52 0.67,0.67 0 0 0 0.52,0.8 c 9.41,2 29.08,19.65 35.45,47.69 a 0.5,0.5 0 0 0 0,0.13 l 1.19,-0.7 C 75.77,398.33 56.22,380.43 45.83,378.26 Z"
           style="fill:#ffffff"
           id="path17" />
      </g>
      <g
         id="g32">
        <path
           d="m 423.1,352.51 c 0.82,-11.92 -0.06,-24 7.37,-40.45 6.23,-13.79 16.52,-24.64 28.23,-25.49 4.85,-0.35 8.35,0.78 10.39,4.23 3.58,6.07 -1.75,12.57 -7.46,16.32 -2.51,1.65 -23.17,12.33 -28.85,36 l -2.47,13.49 -0.82,-0.46 z"
           style="fill:#61c0bf"
           id="path20" />
        <path
           d="m 423.1,352.51 c 0.82,-11.92 -0.06,-24 7.37,-40.45 6.23,-13.79 16.52,-24.64 28.23,-25.49 4.85,-0.35 8.35,0.78 10.39,4.23 3.58,6.07 -1.75,12.57 -7.46,16.32 -2.51,1.65 -23.17,12.33 -28.85,36 l -2.47,13.49 -0.82,-0.46 z"
           style="opacity:0.25;fill:#ffffff"
           id="path22" />
        <path
           d="m 426.86,348.44 a 0.53,0.53 0 0 0 0.45,-0.45 c 3.71,-28.85 14.66,-46.1 34.63,-52.88 a 0.52,0.52 0 0 0 0.27,-0.69 0.55,0.55 0 0 0 -0.7,-0.27 c -20.16,6.44 -31.49,24.48 -35.25,53.7 a 0.54,0.54 0 0 0 0.46,0.59 z"
           style="fill:#ffffff"
           id="path24" />
        <path
           d="m 434.19,359 c 0.84,-4.14 3.07,-8.92 11.47,-18.15 7.26,-8 18.59,-12.41 20.81,-17.36 2.66,-5.94 -2.12,-11.4 -11.22,-10.22 -10.95,1.4 -22.13,17.73 -26.18,42.73 z"
           style="fill:#61c0bf"
           id="path26" />
        <path
           d="m 434.19,359 c 0.84,-4.14 3.07,-8.92 11.47,-18.15 7.26,-8 18.59,-12.41 20.81,-17.36 2.66,-5.94 -2.12,-11.4 -11.22,-10.22 -10.95,1.4 -22.13,17.73 -26.18,42.73 z"
           style="opacity:0.65;fill:#ffffff"
           id="path28" />
        <path
           d="M 431.61,355.35 A 0.54,0.54 0 0 0 432,355 c 5.91,-21.64 19.77,-33.52 27.13,-35.06 a 0.53,0.53 0 0 0 0.41,-0.63 0.51,0.51 0 0 0 -0.62,-0.4 c -8.15,1.7 -21.91,13.72 -27.94,35.81 a 0.53,0.53 0 0 0 0.37,0.65 0.55,0.55 0 0 0 0.26,-0.02 z"
           style="fill:#ffffff"
           id="path30" />
      </g>
    </g>
    <g
       id="freepik--Clouds--inject-51">
      <g
         id="freepik--clouds--inject-51">
        <path
           d="m 222.59,58.83 3.13,-1.9 a 6.48,6.48 0 0 1 0,-0.65 v -1.55 a 9.56,9.56 0 0 1 4.33,-7.5 3.35,3.35 0 0 1 2.58,-0.5 14.47,14.47 0 0 1 6.37,-10.28 c 3.58,-2.06 6.48,-0.39 6.48,3.74 v 2.33 a 11.25,11.25 0 0 1 -0.55,3.32 l 4.45,-2.57 c 1.33,-0.77 2.4,-0.15 2.4,1.39 a 5.31,5.31 0 0 1 -2.4,4.16 l -26.8,15.56 c -1.33,0.77 -2.41,0.14 -2.41,-1.39 a 5.32,5.32 0 0 1 2.42,-4.16 z"
           style="fill:#ebebeb"
           id="path35" />
        <path
           d="m 203.38,40.41 -3.13,1.2 v -6.9 c 0,-5.47 -4.37,-6.78 -9.1,-4.05 v 0 c -4.74,2.74 -8.58,9.39 -8.58,14.86 v 1 a 4.62,4.62 0 0 0 -4,0.62 v 0 a 13.63,13.63 0 0 0 -6.17,10.69 v 0.45 l -4.37,2.53 a 9,9 0 0 0 -4.07,7 c 0,2.59 1.82,3.64 4.07,2.34 L 203.38,49.8 a 9,9 0 0 0 4.07,-7 c 0,-2.64 -1.82,-3.69 -4.07,-2.39 z"
           style="fill:#ebebeb"
           id="path37" />
      </g>
    </g>
    <g
       id="freepik--Arrows--inject-51">
      <g
         id="freepik--down-arrows--inject-51">
        <polygon
           points="104.77,125.41 82.53,110.24 127,84.57 "
           style="opacity:0.5;fill:#61c0bf"
           id="polygon41" />
        <polygon
           points="104.77,106.74 82.53,91.57 127,65.9 "
           style="opacity:0.3;fill:#61c0bf"
           id="polygon43" />
        <polygon
           points="104.77,88.07 82.53,72.9 127,47.23 "
           style="opacity:0.1;fill:#61c0bf"
           id="polygon45" />
      </g>
    </g>
    <g
       id="freepik--Window--inject-51">
      <g
         id="g104">
        <g
           id="freepik--window--inject-51">
          <path
             d="m 97,427 a 9,9 0 0 1 -4.17,1.27 10.58,10.58 0 0 1 -6.11,-1.07 11.34,11.34 0 0 1 -5,-9 V 212.55 l 10,5.77 V 424 c 0,2.41 1.21,3.8 3,3.8 A 5.2,5.2 0 0 0 97,427 Z"
             style="fill:#e0e0e0"
             id="path49" />
          <path
             d="m 334,284.05 a 11.73,11.73 0 0 1 -5.31,9.21 L 97,427 c -2.92,1.7 -5.3,0.32 -5.3,-3.07 V 192.17 l 14.63,-8.44 c 2.92,-1.7 147.27,-85 150.19,-86.72 L 334,52.24 Z"
             style="fill:#fafafa"
             id="path51" />
          <path
             d="m 331.72,56.17 v 227.88 a 9.53,9.53 0 0 1 -4.17,7.24 L 95.83,425.08 a 2.61,2.61 0 0 1 -1.23,0.42 c -0.58,0 -0.67,-1 -0.67,-1.53 V 193.48 l 13.5,-7.79 76,-43.91 L 257.62,99 331.72,56.2 M 334,52.24 256.48,97 c -2.92,1.69 -147.27,85 -150.19,86.72 l -14.63,8.44 V 424 c 0,2.41 1.2,3.8 2.94,3.8 A 4.78,4.78 0 0 0 97,427 L 328.68,293.26 a 11.73,11.73 0 0 0 5.31,-9.21 V 52.24 Z"
             style="fill:#ebebeb"
             id="path53" />
          <path
             d="m 308.3,165.53 v 0 m -1.93,1.12 v 105.76 a 0.85,0.85 0 0 1 -0.18,0.34 L 130.08,374.43 V 268.66 a 0.94,0.94 0 0 1 0.18,-0.33 L 306.37,166.65 m 1.43,-3.11 a 1,1 0 0 0 -0.55,0.17 L 129.2,266.5 a 2.72,2.72 0 0 0 -1.23,2.13 v 108 c 0,0.55 0.27,0.88 0.68,0.88 a 1.12,1.12 0 0 0 0.54,-0.17 l 178.05,-102.8 a 2.7,2.7 0 0 0 1.23,-2.12 v -108 c 0,-0.56 -0.28,-0.88 -0.68,-0.88 z"
             style="fill:#ebebeb"
             id="path55" />
          <path
             d="m 86.67,208.52 a 11.37,11.37 0 0 1 -5,-9 v -25 A 11.76,11.76 0 0 1 87,165.3 L 318.71,31.51 a 11.41,11.41 0 0 1 10.3,-0.19 11.38,11.38 0 0 1 5,9 v 25 a 11.69,11.69 0 0 1 -5.31,9.2 L 97,208.33 a 11.39,11.39 0 0 1 -10.33,0.19 z"
             style="fill:#263238"
             id="path57" />
          <path
             d="m 333.94,39.47 c -0.37,-2.75 -2.61,-3.75 -5.26,-2.21 L 97,171.05 a 11.26,11.26 0 0 0 -3.75,4 l -10,-5.77 a 11,11 0 0 1 3.76,-4 L 318.72,31.52 a 11.34,11.34 0 0 1 10.28,-0.2 11.4,11.4 0 0 1 4.94,8.15 z"
             style="fill:#455a64"
             id="path59" />
          <path
             d="M 334,40.33 V 52.24 L 256.48,97 c -2.92,1.69 -147.27,85 -150.19,86.72 l -14.63,8.44 v -11.9 a 11.77,11.77 0 0 1 5.3,-9.21 L 328.68,37.26 c 2.92,-1.69 5.32,-0.32 5.32,3.07 z"
             style="fill:#37474f"
             id="path61" />
          <path
             d="m 325.09,45 c 1.72,-1 3.12,-0.19 3.12,1.8 a 6.9,6.9 0 0 1 -3.12,5.39 c -1.71,1 -3.11,0.18 -3.11,-1.8 A 6.9,6.9 0 0 1 325.09,45 Z"
             style="fill:#ffffff"
             id="path63" />
          <path
             d="m 313.89,51.44 c 1.72,-1 3.11,-0.19 3.11,1.8 a 6.86,6.86 0 0 1 -3.11,5.38 c -1.72,1 -3.11,0.19 -3.11,-1.79 a 6.86,6.86 0 0 1 3.11,-5.39 z"
             style="fill:#ffffff"
             id="path65" />
          <path
             d="m 302.69,57.9 c 1.72,-1 3.11,-0.19 3.11,1.79 a 6.86,6.86 0 0 1 -3.11,5.39 c -1.72,1 -3.11,0.19 -3.11,-1.79 a 6.86,6.86 0 0 1 3.11,-5.39 z"
             style="fill:#ffffff"
             id="path67" />
          <path
             d="m 100.67,187 c 1.48,-0.86 2,-2.16 2.69,-4.66 l 1.63,-5.64 c 0.59,-2.26 1.21,-3.81 2.7,-4.66 l 64.85,-37.45 c 1.49,-0.86 2.66,-1 3.79,0.92 l 2,3.63 c 0.85,1.46 1.27,2.32 2.75,1.46 L 231.44,111.54 334,52.24 v 26.2 L 91.66,218.36 v -26.19 l 9,-5.22"
             style="fill:#e0e0e0"
             id="path69" />
          <polygon
             points="91.66,218.35 81.67,212.59 81.67,186.43 91.66,192.17 "
             style="fill:#e0e0e0"
             id="polygon71" />
          <polygon
             points="91.66,218.35 81.67,212.59 81.67,186.43 91.66,192.17 "
             style="opacity:0.15"
             id="polygon73" />
          <path
             d="m 105.13,197.36 -4.66,2.69 1.77,-3.42 a 0.83,0.83 0 0 0 0,-0.83 c -0.14,-0.17 -0.37,-0.05 -0.53,0.25 l -2.53,4.87 v 0 a 1.34,1.34 0 0 0 -0.07,0.18 0.14,0.14 0 0 1 0,0.06 1.15,1.15 0 0 0 0,0.26 0.66,0.66 0 0 0 0,0.21 v 0 a 0.41,0.41 0 0 0 0.07,0.11 v 0 l 2.53,1.94 a 0.21,0.21 0 0 0 0.25,0 0.78,0.78 0 0 0 0.28,-0.36 c 0.14,-0.32 0.12,-0.67 0,-0.79 l -1.77,-1.37 4.66,-2.69 a 1,1 0 0 0 0.38,-0.8 c 0,-0.27 -0.17,-0.43 -0.38,-0.31 z"
             style="opacity:0.3"
             id="path75" />
          <path
             d="m 109,195.11 4.66,-2.69 -1.77,-1.37 c -0.16,-0.12 -0.18,-0.48 0,-0.8 0.18,-0.32 0.37,-0.48 0.53,-0.36 l 2.53,2 v 0 a 0.26,0.26 0 0 1 0.07,0.1 c 0,0 0,0 0,0 a 0.66,0.66 0 0 1 0,0.21 1.07,1.07 0 0 1 0,0.25 0.14,0.14 0 0 0 0,0.06 1.34,1.34 0 0 1 -0.07,0.18 v 0 l -2.53,4.87 a 0.7,0.7 0 0 1 -0.25,0.28 0.2,0.2 0 0 1 -0.28,0 0.85,0.85 0 0 1 0,-0.84 l 1.77,-3.42 -4.66,2.7 c -0.21,0.12 -0.38,-0.05 -0.38,-0.37 a 1,1 0 0 1 0.38,-0.8 z"
             style="opacity:0.3"
             id="path77" />
          <path
             d="m 123.93,181.67 c 0,-0.28 -0.27,-0.24 -0.4,0.06 l -0.63,1.57 c -1.09,-0.12 -2.41,0.94 -3.31,2.83 -1.15,2.45 -1.15,5.34 0,6.45 a 1.66,1.66 0 0 0 2.1,0.13 5.65,5.65 0 0 0 2.09,-2.55 0.77,0.77 0 0 0 0,-0.81 c -0.14,-0.15 -0.38,0 -0.53,0.3 -0.86,1.83 -2.26,2.64 -3.13,1.81 -0.87,-0.83 -0.86,-3 0,-4.82 0.62,-1.3 1.5,-2.07 2.27,-2.12 l -0.48,1.18 c -0.12,0.31 0,0.59 0.19,0.46 l 1.9,-1.24 a 0.61,0.61 0 0 0 0.21,-0.52 z"
             style="opacity:0.3"
             id="path79" />
          <path
             d="m 171.59,142.9 1.87,-4 a 1.2,1.2 0 0 0 0,-1.23 c -0.22,-0.22 -0.58,0 -0.8,0.46 l -1.87,4 -1.87,-1.8 c -0.22,-0.21 -0.58,0 -0.8,0.46 a 1.2,1.2 0 0 0 0,1.23 l 1.87,1.8 -1.87,4 a 1.2,1.2 0 0 0 0,1.23 0.31,0.31 0 0 0 0.4,0 1.2,1.2 0 0 0 0.4,-0.49 l 1.87,-4 1.87,1.8 a 0.31,0.31 0 0 0 0.4,0 1.4,1.4 0 0 0 0.4,-1.72 z"
             style="opacity:0.3"
             id="path81" />
          <path
             d="m 134.26,183.47 v -5.17 a 5.66,5.66 0 0 1 2.56,-4.43 L 312,72.48 c 1.41,-0.82 2.55,-0.16 2.55,1.47 v 5.18 A 5.63,5.63 0 0 1 312,83.55 L 136.82,185 c -1.41,0.76 -2.56,0.1 -2.56,-1.53 z"
             style="fill:#fafafa"
             id="path83" />
          <path
             d="m 308.56,84 a 0.79,0.79 0 0 1 -0.23,0 0.7,0.7 0 0 1 -0.39,-0.78 l 0.26,-2.1 -1,-0.71 a 0.67,0.67 0 0 1 -0.27,-0.57 1.13,1.13 0 0 1 0.42,-0.89 l 1.5,-1.16 a 0.2,0.2 0 0 0 0.07,-0.12 l 0.67,-2.2 A 0.93,0.93 0 0 1 310.35,74.76 0.61,0.61 0 0 1 311,75 l 0.56,1.2 1.27,-0.49 a 0.59,0.59 0 0 1 0.67,0.16 0.91,0.91 0 0 1 0,1 l -1.09,2 a 0.28,0.28 0 0 0 0,0.13 l 0.25,1.84 a 1.15,1.15 0 0 1 -0.32,0.92 0.67,0.67 0 0 1 -0.59,0.23 l -1.23,-0.15 -1.32,1.69 A 0.77,0.77 0 0 1 308.56,84 Z m -0.73,-4.27 1,0.71 a 0.73,0.73 0 0 1 0.26,0.7 l -0.17,1.4 0.89,-1.13 a 0.74,0.74 0 0 1 0.67,-0.32 l 1.23,0.15 a 0.3,0.3 0 0 0 0.05,-0.14 l -0.26,-1.84 a 1.15,1.15 0 0 1 0.13,-0.67 l 0.95,-1.78 -1,0.38 a 0.61,0.61 0 0 1 -0.77,-0.31 l -0.45,-1 -0.59,2 a 1.18,1.18 0 0 1 -0.37,0.56 l -1.51,1.16 a 0.42,0.42 0 0 0 -0.06,0.08 z"
             style="fill:#e0e0e0"
             id="path85" />
          <g
             style="opacity:0.2"
             id="g93">
            <path
               d="M 319.46,70.47 A 0.84,0.84 0 0 1 319,68.9 l 6.84,-4 a 0.8421995,0.8421995 0 1 1 0.84,1.46 l -6.84,4 a 0.78,0.78 0 0 1 -0.38,0.11 z"
               id="path87" />
            <path
               d="m 319.46,74.42 a 0.84,0.84 0 0 1 -0.42,-1.57 l 6.84,-3.95 a 0.8421995,0.8421995 0 1 1 0.84,1.46 l -6.84,4 a 0.78,0.78 0 0 1 -0.42,0.06 z"
               id="path89" />
            <path
               d="M 319.46,78.38 A 0.85,0.85 0 0 1 319,76.8 l 6.84,-4 a 0.84,0.84 0 0 1 1.15,0.31 0.84,0.84 0 0 1 -0.31,1.15 l -6.84,4 a 0.79,0.79 0 0 1 -0.38,0.12 z"
               id="path91" />
          </g>
        </g>
        <path
           d="m 258.2,141.16 50.08,-28.91 c 1.48,-0.86 2.68,-0.16 2.68,1.55 v 11.26 a 6,6 0 0 1 -2.69,4.65 l -50.07,28.91 c -1.48,0.86 -2.68,0.16 -2.68,-1.55 v -11.26 a 6,6 0 0 1 2.68,-4.65 z"
           style="fill:#61c0bf"
           id="path96" />
        <path
           d="m 258.2,141.16 50.08,-28.91 c 1.48,-0.86 2.68,-0.16 2.68,1.55 v 11.26 a 6,6 0 0 1 -2.69,4.65 l -50.07,28.91 c -1.48,0.86 -2.68,0.16 -2.68,-1.55 v -11.26 a 6,6 0 0 1 2.68,-4.65 z"
           style="opacity:0.3;fill:#ffffff"
           id="path98" />
        <path
           d="m 197.71,176 50.08,-28.91 c 1.48,-0.85 2.68,-0.16 2.68,1.55 v 11.26 a 5.94,5.94 0 0 1 -2.69,4.65 l -50.07,28.95 c -1.48,0.85 -2.68,0.16 -2.68,-1.56 v -11.25 a 6,6 0 0 1 2.68,-4.69 z"
           style="fill:#61c0bf"
           id="path100" />
        <path
           d="m 197.71,176 50.08,-28.91 c 1.48,-0.85 2.68,-0.16 2.68,1.55 v 11.26 a 5.94,5.94 0 0 1 -2.69,4.65 l -50.07,28.95 c -1.48,0.85 -2.68,0.16 -2.68,-1.56 v -11.25 a 6,6 0 0 1 2.68,-4.69 z"
           style="opacity:0.3;fill:#ffffff"
           id="path102" />
      </g>
      <g
         id="freepik--menu-button--inject-51">
        <path
           d="m 190,189.49 a 1.88,1.88 0 0 0 -0.79,-1.74 l -5,-2.92 a 1.91,1.91 0 0 0 -1.9,0.19 l -65.18,37.62 a 6,6 0 0 0 -2.69,4.66 v 11.25 a 1.89,1.89 0 0 0 0.78,1.73 c 0.48,0.29 4.57,2.65 5.07,2.93 a 1.89,1.89 0 0 0 1.89,-0.19 l 65.19,-37.61 a 5.91,5.91 0 0 0 2.69,-4.65 z"
           style="fill:#61c0bf"
           id="path106" />
        <path
           d="m 190,189.49 a 1.88,1.88 0 0 0 -0.79,-1.74 l -5,-2.92 a 1.91,1.91 0 0 0 -1.9,0.19 l -65.18,37.62 a 6,6 0 0 0 -2.69,4.66 v 11.25 a 1.89,1.89 0 0 0 0.78,1.73 c 0.48,0.29 4.57,2.65 5.07,2.93 a 1.89,1.89 0 0 0 1.89,-0.19 l 65.19,-37.61 a 5.91,5.91 0 0 0 2.69,-4.65 z"
           style="opacity:0.15"
           id="path108" />
        <path
           d="m 122.1,225.56 65.17,-37.62 a 1.64,1.64 0 0 1 2.69,1.55 v 11.27 a 5.93,5.93 0 0 1 -2.68,4.65 L 122.1,243 a 1.64,1.64 0 0 1 -2.69,-1.55 v -11.24 a 5.94,5.94 0 0 1 2.69,-4.65 z"
           style="fill:#61c0bf"
           id="path110" />
        <path
           d="m 189.18,187.75 a 1.91,1.91 0 0 0 -1.9,0.19 l -65.17,37.61 a 5.69,5.69 0 0 0 -1.91,2 l -5,-2.91 a 5.5,5.5 0 0 1 1.9,-2 L 182.24,185 a 1.91,1.91 0 0 1 1.9,-0.19 z"
           style="fill:#61c0bf"
           id="path112" />
        <path
           d="m 189.18,187.75 a 1.91,1.91 0 0 0 -1.9,0.19 l -65.17,37.61 a 5.69,5.69 0 0 0 -1.91,2 l -5,-2.91 a 5.5,5.5 0 0 1 1.9,-2 L 182.24,185 a 1.91,1.91 0 0 1 1.9,-0.19 z"
           style="opacity:0.3;fill:#ffffff"
           id="path114" />
        <path
           d="m 134.44,227.05 1.6,-5.22 0.11,-0.27 a 0.65,0.65 0 0 1 0.25,-0.29 l 0.58,-0.33 a 0.12,0.12 0 0 1 0.16,0 0.31,0.31 0 0 1 0.07,0.21 v 8.4 a 0.77,0.77 0 0 1 -0.07,0.29 0.48,0.48 0 0 1 -0.16,0.2 l -0.69,0.39 a 0.12,0.12 0 0 1 -0.16,0 0.29,0.29 0 0 1 -0.06,-0.21 v -5.08 L 135,228.7 a 2.93,2.93 0 0 1 -0.12,0.28 0.48,0.48 0 0 1 -0.2,0.22 l -0.43,0.26 a 0.18,0.18 0 0 1 -0.2,0 0.79,0.79 0 0 1 -0.12,-0.15 L 132.8,227 v 5.08 a 0.72,0.72 0 0 1 -0.06,0.29 0.48,0.48 0 0 1 -0.16,0.2 l -0.69,0.39 a 0.12,0.12 0 0 1 -0.16,0 0.29,0.29 0 0 1 -0.07,-0.21 v -8.4 a 0.77,0.77 0 0 1 0.07,-0.29 0.45,0.45 0 0 1 0.16,-0.19 l 0.58,-0.33 c 0.11,-0.07 0.19,-0.07 0.25,0 l 0.11,0.15 z"
           style="fill:#fafafa"
           id="path116" />
        <path
           d="m 138.23,225.94 a 7.91,7.91 0 0 1 0.14,-1.45 7,7 0 0 1 0.42,-1.36 5.38,5.38 0 0 1 0.65,-1.13 3.1,3.1 0 0 1 0.86,-0.77 1.4,1.4 0 0 1 0.86,-0.22 1,1 0 0 1 0.65,0.33 2,2 0 0 1 0.42,0.82 4.23,4.23 0 0 1 0.15,1.18 v 0.58 a 0.62,0.62 0 0 1 -0.07,0.29 0.42,0.42 0 0 1 -0.16,0.2 l -2.82,1.59 a 1.09,1.09 0 0 0 0.08,0.48 0.55,0.55 0 0 0 0.21,0.26 0.49,0.49 0 0 0 0.32,0.05 1.12,1.12 0 0 0 0.36,-0.13 2,2 0 0 0 0.44,-0.34 2.47,2.47 0 0 0 0.26,-0.32 2.33,2.33 0 0 1 0.15,-0.23 0.53,0.53 0 0 1 0.16,-0.13 l 0.68,-0.39 a 0.13,0.13 0 0 1 0.16,0 0.22,0.22 0 0 1 0.06,0.21 1.58,1.58 0 0 1 -0.13,0.54 4.4,4.4 0 0 1 -0.36,0.78 5.54,5.54 0 0 1 -0.61,0.81 3.39,3.39 0 0 1 -0.83,0.68 1.53,1.53 0 0 1 -0.86,0.24 1,1 0 0 1 -0.65,-0.34 2.19,2.19 0 0 1 -0.42,-0.88 5.74,5.74 0 0 1 -0.12,-1.35 z m 2.07,-3.15 a 1.82,1.82 0 0 0 -0.42,0.36 2.66,2.66 0 0 0 -0.29,0.45 2.3,2.3 0 0 0 -0.18,0.5 2.86,2.86 0 0 0 -0.08,0.45 l 1.91,-1.1 a 1.61,1.61 0 0 0 -0.07,-0.37 0.69,0.69 0 0 0 -0.15,-0.31 0.43,0.43 0 0 0 -0.28,-0.12 0.84,0.84 0 0 0 -0.44,0.14 z"
           style="fill:#fafafa"
           id="path118" />
        <path
           d="m 147.42,223.67 a 0.58,0.58 0 0 1 -0.07,0.28 0.37,0.37 0 0 1 -0.16,0.2 l -0.64,0.37 a 0.12,0.12 0 0 1 -0.16,0 0.31,0.31 0 0 1 -0.07,-0.21 V 221 a 2,2 0 0 0 -0.23,-1.12 c -0.16,-0.22 -0.4,-0.23 -0.73,0 a 1.76,1.76 0 0 0 -0.7,0.88 3.46,3.46 0 0 0 -0.26,1.4 v 3.3 a 0.77,0.77 0 0 1 -0.07,0.29 0.56,0.56 0 0 1 -0.16,0.2 l -0.64,0.37 c -0.07,0 -0.12,0 -0.16,0 a 0.24,0.24 0 0 1 -0.07,-0.2 V 220 a 0.58,0.58 0 0 1 0.07,-0.28 0.37,0.37 0 0 1 0.16,-0.2 l 0.64,-0.37 a 0.12,0.12 0 0 1 0.16,0 0.31,0.31 0 0 1 0.07,0.21 v 0.3 a 4.88,4.88 0 0 1 0.51,-0.86 2.29,2.29 0 0 1 0.7,-0.62 1.39,1.39 0 0 1 0.87,-0.25 0.76,0.76 0 0 1 0.55,0.34 1.92,1.92 0 0 1 0.3,0.79 6.43,6.43 0 0 1 0.09,1.12 z"
           style="fill:#fafafa"
           id="path120" />
        <path
           d="m 148.5,217 a 0.77,0.77 0 0 1 0.07,-0.29 0.45,0.45 0 0 1 0.16,-0.19 l 0.64,-0.37 c 0.07,0 0.12,0 0.16,0 a 0.24,0.24 0 0 1 0.07,0.2 v 3.31 a 2.12,2.12 0 0 0 0.22,1.12 c 0.14,0.23 0.38,0.25 0.7,0.06 a 1.64,1.64 0 0 0 0.69,-0.86 3.91,3.91 0 0 0 0.23,-1.38 v -3.31 a 0.72,0.72 0 0 1 0.07,-0.28 0.43,0.43 0 0 1 0.16,-0.2 l 0.64,-0.37 a 0.13,0.13 0 0 1 0.17,0 0.29,0.29 0 0 1 0.06,0.21 v 6.06 a 0.79,0.79 0 0 1 -0.06,0.29 0.4,0.4 0 0 1 -0.17,0.19 l -0.64,0.37 a 0.11,0.11 0 0 1 -0.16,0 0.29,0.29 0 0 1 -0.07,-0.21 V 221 a 5.3,5.3 0 0 1 -0.48,0.82 2.1,2.1 0 0 1 -0.69,0.64 1.4,1.4 0 0 1 -0.85,0.25 0.81,0.81 0 0 1 -0.55,-0.35 2,2 0 0 1 -0.28,-0.81 6.23,6.23 0 0 1 -0.09,-1.11 z"
           style="fill:#fafafa"
           id="path122" />
        <polygon
           points="179.35,199.67 175.94,206.17 172.22,203.36 172.89,202.09 175.63,204.16 178.37,198.93 "
           style="fill:#fafafa"
           id="polygon124" />
      </g>
    </g>
    <g
       id="freepik--dropdown-menu-2--inject-51">
      <g
         id="freepik--dropdown-menu--inject-51">
        <path
           d="m 253.16,234.48 a 1.88,1.88 0 0 0 -0.79,-1.74 l -5,-2.9 a 1.88,1.88 0 0 0 -1.9,0.18 l -42.69,24.64 -2.68,1.55 v 84.21 a 1.91,1.91 0 0 0 0.77,1.73 l 5.07,2.92 a 1.87,1.87 0 0 0 1.89,-0.19 l 42.7,-24.63 a 5.93,5.93 0 0 0 2.68,-4.65 z"
           style="fill:#e0e0e0"
           id="path128" />
        <path
           d="m 247.34,229.84 a 1.88,1.88 0 0 0 -1.91,0.18 l -42.68,24.63 -2.68,1.56 -8,4.6 a 1.21,1.21 0 0 0 0,2.09 53,53 0 0 0 5.34,3 l 7.66,1.93 v -8.73 l 2.69,-1.55 42.67,-24.64 a 1.91,1.91 0 0 1 1.9,-0.19 c -0.44,-0.26 -4.5,-2.61 -4.99,-2.88 z"
           style="fill:#f0f0f0"
           id="path130" />
        <path
           d="m 253.15,234.48 a 1.64,1.64 0 0 0 -2.69,-1.55 l -45.35,26.19 -8,4.6 a 1.2,1.2 0 0 0 0,2.08 1.05,1.05 0 0 0 0.31,0.12 l 7.66,1.93 v 75.48 a 1.63,1.63 0 0 0 2.68,1.55 l 42.7,-24.63 a 5.94,5.94 0 0 0 2.69,-4.65 z"
           style="fill:#fafafa"
           id="path132" />
        <path
           d="m 251.69,233.89 a 1,1 0 0 1 0.13,0.59 v 81.12 a 4.6,4.6 0 0 1 -2,3.5 l -42.69,24.62 a 1.34,1.34 0 0 1 -0.56,0.2 1,1 0 0 1 -0.13,-0.59 v -76.52 l -1,-0.25 -7.34,-1.85 7.68,-4.43 45.36,-26.19 a 1.17,1.17 0 0 1 0.53,-0.19 v 0 m 0,-1.33 a 2.46,2.46 0 0 0 -1.2,0.37 l -45.35,26.19 -8,4.6 a 1.2,1.2 0 0 0 0,2.08 1.05,1.05 0 0 0 0.31,0.12 l 7.66,1.93 v 75.48 a 1.88,1.88 0 0 0 0.79,1.74 1.34,1.34 0 0 0 0.69,0.18 2.4,2.4 0 0 0 1.2,-0.37 l 42.7,-24.63 a 5.94,5.94 0 0 0 2.69,-4.65 v -81.12 a 1.88,1.88 0 0 0 -0.79,-1.74 1.35,1.35 0 0 0 -0.7,-0.18 z"
           style="fill:#e0e0e0"
           id="path134" />
        <polygon
           points="205.11,312.22 253.17,284.48 253.17,283.04 205.11,310.79 "
           style="fill:#e0e0e0"
           id="polygon136" />
        <polygon
           points="253.17,301.94 253.17,300.5 205.11,328.25 205.11,329.69 "
           style="fill:#e0e0e0"
           id="polygon138" />
        <polygon
           points="205.11,277.3 253.16,249.56 253.16,248.12 205.11,275.87 "
           style="fill:#e0e0e0"
           id="polygon140" />
        <polygon
           points="205.11,294.76 253.16,267.02 253.16,265.58 205.11,293.33 "
           style="fill:#e0e0e0"
           id="polygon142" />
        <polygon
           points="251.97,267.71 251.97,283.86 206.35,310.07 206.35,294.05 "
           style="fill:#61c0bf"
           id="polygon144" />
        <polygon
           points="251.97,267.71 251.97,283.86 206.35,310.07 206.35,294.05 "
           style="opacity:0.6;fill:#ffffff"
           id="polygon146" />
        <path
           d="m 215.19,294 20.16,-11.64 c 0.89,-0.51 1.61,-0.1 1.61,0.93 v 0.86 a 3.55,3.55 0 0 1 -1.61,2.79 l -20.16,11.64 c -0.89,0.52 -1.61,0.1 -1.61,-0.93 v -0.86 a 3.58,3.58 0 0 1 1.61,-2.79 z"
           style="fill:#61c0bf"
           id="path148" />
        <path
           d="M 215.19,276.6 235.35,265 c 0.89,-0.51 1.61,-0.09 1.61,0.94 v 0.85 a 3.55,3.55 0 0 1 -1.61,2.79 l -20.16,11.65 c -0.89,0.51 -1.61,0.09 -1.61,-0.93 v -0.86 a 3.55,3.55 0 0 1 1.61,-2.84 z"
           style="fill:#e0e0e0"
           id="path150" />
        <path
           d="m 215.19,259.12 20.16,-11.64 c 0.89,-0.52 1.61,-0.1 1.61,0.93 v 0.86 a 3.58,3.58 0 0 1 -1.61,2.79 l -20.16,11.64 c -0.89,0.51 -1.61,0.1 -1.61,-0.93 v -0.86 a 3.55,3.55 0 0 1 1.61,-2.79 z"
           style="fill:#e0e0e0"
           id="path152" />
        <path
           d="m 215.19,329 20.16,-11.64 c 0.89,-0.51 1.61,-0.09 1.61,0.93 v 0.86 a 3.55,3.55 0 0 1 -1.61,2.79 l -20.16,11.64 c -0.89,0.52 -1.61,0.1 -1.61,-0.93 v -0.85 a 3.58,3.58 0 0 1 1.61,-2.8 z"
           style="fill:#e0e0e0"
           id="path154" />
        <path
           d="m 215.19,311.49 20.16,-11.64 c 0.89,-0.52 1.61,-0.1 1.61,0.93 v 0.85 a 3.58,3.58 0 0 1 -1.61,2.8 l -20.16,11.64 c -0.89,0.51 -1.61,0.1 -1.61,-0.93 v -0.86 a 3.55,3.55 0 0 1 1.61,-2.79 z"
           style="fill:#e0e0e0"
           id="path156" />
      </g>
    </g>
    <g
       id="freepik--dropdown-menu-1--inject-51">
      <g
         id="g192">
        <path
           d="m 190,224.4 a 1.88,1.88 0 0 0 -0.79,-1.74 l -5,-2.9 a 1.9,1.9 0 0 0 -1.91,0.18 l -65.18,37.61 a 6,6 0 0 0 -2.69,4.65 v 81.11 a 1.89,1.89 0 0 0 0.78,1.73 c 0.48,0.29 4.57,2.65 5.07,2.93 a 1.92,1.92 0 0 0 1.89,-0.19 l 65.19,-37.61 a 5.91,5.91 0 0 0 2.69,-4.65 z"
           style="fill:#e0e0e0"
           id="path160" />
        <path
           d="m 189.18,222.66 a 1.91,1.91 0 0 0 -1.9,0.19 l -65.17,37.61 a 5.61,5.61 0 0 0 -1.91,2 l -5,-2.91 a 5.5,5.5 0 0 1 1.9,-2 l 65.18,-37.61 a 1.88,1.88 0 0 1 1.91,-0.18 z"
           style="fill:#f0f0f0"
           id="path162" />
        <path
           d="m 179.9,227.11 -2.5,-4.34 a 0.9,0.9 0 0 0 -0.35,-0.35 l -5,-2.92 a 1,1 0 0 0 -1.39,0.51 l -2.87,8.28 5,2.93 z"
           style="fill:#e0e0e0"
           id="path164" />
        <path
           d="m 190,224.4 a 1.64,1.64 0 0 0 -2.69,-1.55 l -7.37,4.25 -2.5,-4.33 a 1,1 0 0 0 -1.73,0.16 l -2.86,8.26 -50.75,29.27 a 6,6 0 0 0 -2.69,4.66 v 81.1 a 1.89,1.89 0 0 0 0.8,1.75 1.92,1.92 0 0 0 1.89,-0.19 l 65.2,-37.61 a 5.93,5.93 0 0 0 2.68,-4.65 z"
           style="fill:#fafafa"
           id="path166" />
        <path
           d="m 188.5,223.81 a 1,1 0 0 1 0.12,0.59 v 81.12 a 4.65,4.65 0 0 1 -2,3.5 l -65.2,37.6 a 1.12,1.12 0 0 1 -0.55,0.19 c 0,0 -0.13,-0.19 -0.13,-0.59 v -81.1 a 4.6,4.6 0 0 1 2,-3.5 l 50.71,-29.27 0.43,-0.25 0.16,-0.47 2.59,-7.47 2.08,3.61 0.67,1.16 1.16,-0.67 7.37,-4.26 a 1.23,1.23 0 0 1 0.56,-0.19 m -11.93,-1.52 a 0.93,0.93 0 0 0 -0.9,0.64 l -2.86,8.26 -50.68,29.27 a 6,6 0 0 0 -2.69,4.66 v 81.1 a 1.89,1.89 0 0 0 0.8,1.75 1.41,1.41 0 0 0 0.69,0.17 2.52,2.52 0 0 0 1.2,-0.36 l 65.2,-37.61 a 5.93,5.93 0 0 0 2.68,-4.65 V 224.4 a 1.88,1.88 0 0 0 -0.79,-1.74 1.38,1.38 0 0 0 -0.7,-0.18 2.43,2.43 0 0 0 -1.2,0.37 l -7.37,4.25 -2.5,-4.33 a 1,1 0 0 0 -0.83,-0.48 z"
           style="fill:#e0e0e0"
           id="path168" />
        <polygon
           points="119.41,280.21 189.98,239.47 189.98,238.03 119.41,278.77 "
           style="fill:#e0e0e0"
           id="polygon170" />
        <polygon
           points="119.41,315.13 189.98,274.39 189.98,272.96 119.41,313.7 "
           style="fill:#e0e0e0"
           id="polygon172" />
        <polygon
           points="189.98,291.85 189.98,290.42 119.41,331.16 119.41,332.59 "
           style="fill:#e0e0e0"
           id="polygon174" />
        <polygon
           points="119.41,297.67 189.98,256.93 189.98,255.5 119.41,296.24 "
           style="fill:#e0e0e0"
           id="polygon176" />
        <polygon
           points="188.76,257.63 188.74,273.67 120.67,312.98 120.67,296.95 "
           style="fill:#61c0bf"
           id="polygon178" />
        <polygon
           points="188.76,257.63 188.74,273.67 120.67,312.98 120.67,296.95 "
           style="opacity:0.6;fill:#ffffff"
           id="polygon180" />
        <path
           d="m 131.11,296 32.06,-18.51 c 0.89,-0.51 1.61,-0.09 1.61,0.93 v 0.86 a 3.55,3.55 0 0 1 -1.61,2.79 l -32.06,18.53 c -0.89,0.52 -1.62,0.1 -1.62,-0.93 v -0.85 a 3.59,3.59 0 0 1 1.62,-2.82 z"
           style="fill:#61c0bf"
           id="path182" />
        <path
           d="m 131.11,278.59 32.06,-18.51 c 0.89,-0.52 1.61,-0.1 1.61,0.93 v 0.85 a 3.58,3.58 0 0 1 -1.61,2.8 l -32.06,18.51 c -0.89,0.51 -1.62,0.09 -1.62,-0.93 v -0.86 a 3.56,3.56 0 0 1 1.62,-2.79 z"
           style="fill:#e0e0e0"
           id="path184" />
        <path
           d="m 131.11,261.11 32.06,-18.51 c 0.89,-0.51 1.61,-0.1 1.61,0.93 v 0.86 a 3.55,3.55 0 0 1 -1.61,2.79 l -32.06,18.51 c -0.89,0.51 -1.62,0.1 -1.62,-0.93 v -0.86 a 3.56,3.56 0 0 1 1.62,-2.79 z"
           style="fill:#e0e0e0"
           id="path186" />
        <path
           d="m 131.11,331 32.06,-18.51 c 0.89,-0.51 1.61,-0.09 1.61,0.93 v 0.86 a 3.55,3.55 0 0 1 -1.61,2.79 l -32.06,18.51 c -0.89,0.52 -1.62,0.1 -1.62,-0.93 v -0.85 a 3.59,3.59 0 0 1 1.62,-2.8 z"
           style="fill:#e0e0e0"
           id="path188" />
        <path
           d="M 131.11,313.48 163.17,295 c 0.89,-0.52 1.61,-0.1 1.61,0.93 v 0.86 a 3.58,3.58 0 0 1 -1.61,2.79 l -32.06,18.51 c -0.89,0.51 -1.62,0.1 -1.62,-0.93 v -0.86 a 3.56,3.56 0 0 1 1.62,-2.82 z"
           style="fill:#e0e0e0"
           id="path190" />
      </g>
    </g>
    <g
       id="freepik--Cursor--inject-51">
      <g
         id="freepik--Arrow--inject-51">
        <path
           d="m 266.54,296.41 -15.05,-18 a 1.1,1.1 0 0 0 -0.27,-0.24 l -3.61,-2.09 c -0.31,-0.18 -0.53,0.06 -0.53,0.65 l -0.08,36.4 c 0,0.31 0.05,0.49 0.13,0.54 l 3.61,2.09 c 0.12,0.06 0.31,-0.13 0.53,-0.59 l 2.58,-5.53 1.47,5.26 a 0.7,0.7 0 0 0 0.29,0.43 l 3.62,2.09 c 0.3,0.17 0.74,0 1.16,-0.47 l 2.08,-2.4 a 3.12,3.12 0 0 0 0.76,-2.5 l -2.84,-10.16 a 1.82,1.82 0 0 1 1.19,-1.93 l 4.22,-1.9 c 0.85,-0.39 1.2,-1.13 0.74,-1.65 z"
           style="fill:#61c0bf"
           id="path195" />
        <path
           d="m 266.54,296.41 -15.05,-18 a 1.1,1.1 0 0 0 -0.27,-0.24 l -3.61,-2.09 c -0.31,-0.18 -0.53,0.06 -0.53,0.65 l -0.08,36.4 c 0,0.31 0.05,0.49 0.13,0.54 l 3.61,2.09 c 0.12,0.06 0.31,-0.13 0.53,-0.59 l 2.58,-5.53 1.47,5.26 a 0.7,0.7 0 0 0 0.29,0.43 l 3.62,2.09 c 0.3,0.17 0.74,0 1.16,-0.47 l 2.08,-2.4 a 3.12,3.12 0 0 0 0.76,-2.5 l -2.84,-10.16 a 1.82,1.82 0 0 1 1.19,-1.93 l 4.22,-1.9 c 0.85,-0.39 1.2,-1.13 0.74,-1.65 z"
           style="fill:#37474f"
           id="path197" />
        <path
           d="m 250.61,315.22 0.08,-36.43 c 0,-0.76 0.36,-0.94 0.8,-0.41 l 15.05,18 c 0.44,0.52 0.11,1.26 -0.74,1.65 l -4.22,1.9 a 1.82,1.82 0 0 0 -1.19,1.93 l 2.84,10.16 a 3.12,3.12 0 0 1 -0.76,2.5 l -2.08,2.4 c -0.61,0.7 -1.26,0.72 -1.45,0 l -2.85,-10.15 c -0.19,-0.68 -0.64,-0.6 -1,0.18 l -3.81,8.16 c -0.38,0.89 -0.67,0.89 -0.67,0.11 z"
           style="fill:#455a64"
           id="path199" />
        <path
           d="m 259.17,317.38 -3.56,-2.05 a 0.7,0.7 0 0 1 -0.29,-0.43 l -1.47,-5.25 1.23,-2.64 c 0.37,-0.78 0.82,-0.86 1,-0.18 l 2.85,10.17 a 0.8,0.8 0 0 0 0.24,0.38 z"
           style="fill:#263238"
           id="path201" />
      </g>
    </g>
    <g
       id="freepik--Character--inject-51">
      <g
         id="freepik--character--inject-51">
        <g
           id="freepik--Bottom--inject-51">
          <path
             d="m 338.07,386.16 -8.25,-16.24 -16.59,9.71 20.45,24.14 c 0,0 10.14,-0.93 11.77,-6.22 1.63,-5.29 -4.59,-9.63 -7.38,-11.39 z"
             style="fill:#c8856a"
             id="path205" />
          <path
             d="m 349.75,392.54 a 8.61,8.61 0 0 1 2.3,2.51 c 0.67,1 0.46,5.8 1.1,8 0.64,2.2 1.13,2.82 2.2,5.62 1.18,3.1 3.37,5.93 0.9,13.89 -2.47,7.96 -6.43,11.76 -9.76,13.71 a 8.79,8.79 0 0 1 -4,1 c 0,0 -4.37,-1.65 -3.7,-4.24 0.67,-2.59 10.96,-40.49 10.96,-40.49 z"
             style="fill:#263238"
             id="path207" />
          <path
             d="m 330.57,401.28 c 0.12,0.82 1.26,2.08 1.73,2.75 1.57,2.25 2.29,5.3 2.83,8 2.58,12.6 -2.43,19 4.36,23.74 2,1.23 6,0.89 12.23,-7.05 3.17,-4.06 5,-12.4 3.74,-16.18 -1.26,-3.78 -2.92,-6.24 -3.72,-9.15 -0.8,-2.91 -0.38,-8.32 -2,-10.81 a 11.67,11.67 0 0 0 -3.93,-3.39 c -1.2,-0.73 -3.84,-1.69 -5.06,-2.39 -1.22,-0.7 -1.91,-1.49 -2.69,-0.6 l 1.41,1.75 c 2.21,3.06 1.6,3.51 1.54,5.14 a 25.85,25.85 0 0 0 0.83,5.19 c -1.58,-2 -2.22,-3.72 -3.94,-3.42 -1.72,0.3 -1.92,0.23 -4.38,2.53 -2.46,2.3 -3.06,3.16 -2.95,3.89 z"
             style="fill:#61c0bf"
             id="path209" />
          <path
             d="m 330.57,401.28 c 0.12,0.82 1.26,2.08 1.73,2.75 1.57,2.25 2.29,5.3 2.83,8 2.58,12.6 -2.43,19 4.36,23.74 2,1.23 6,0.89 12.23,-7.05 3.17,-4.06 5,-12.4 3.74,-16.18 -1.26,-3.78 -2.92,-6.24 -3.72,-9.15 -0.8,-2.91 -0.38,-8.32 -2,-10.81 a 11.67,11.67 0 0 0 -3.93,-3.39 c -1.2,-0.73 -3.84,-1.69 -5.06,-2.39 -1.22,-0.7 -1.91,-1.49 -2.69,-0.6 l 1.41,1.75 c 2.21,3.06 1.6,3.51 1.54,5.14 a 25.85,25.85 0 0 0 0.83,5.19 c -1.58,-2 -2.22,-3.72 -3.94,-3.42 -1.72,0.3 -1.92,0.23 -4.38,2.53 -2.46,2.3 -3.06,3.16 -2.95,3.89 z"
             style="opacity:0.4"
             id="path211" />
          <path
             d="m 351.72,428.68 c 3.17,-4.06 5,-12.4 3.74,-16.18 a 35.36,35.36 0 0 0 -1.45,-3.66 c 0.05,0.25 0.13,0.52 0.16,0.73 0.08,0.49 0.14,1 0.19,1.48 a 11.37,11.37 0 0 1 -0.63,5.72 c -0.71,1.57 -2.36,5.51 -4.48,5.59 -1.2,0.05 -2.21,-1.12 -2.68,-2.46 -0.19,-0.57 -0.51,-2.1 -0.51,-2.1 a 18.61,18.61 0 0 0 -5.52,2.25 c -3.07,2 -3,2.48 -3,2.48 a 8,8 0 0 1 0.1,2.7 6.77,6.77 0 0 1 -1.14,2.69 4.12,4.12 0 0 1 -0.79,0.63 c 0.13,2.91 0.89,5.19 3.74,7.18 2,1.27 6.08,0.89 12.27,-7.05 z"
             style="opacity:0.3"
             id="path213" />
          <path
             d="m 335.13,412 a 42.66,42.66 0 0 1 0.79,10.07 c 1.16,3.23 2.17,3.14 2.31,1.46 0.14,-1.68 -2.09,-8.61 -3.75,-14.34 0.26,0.94 0.52,1.89 0.65,2.81 z"
             style="fill:#37474f"
             id="path215" />
          <path
             d="m 342.8,391.78 a 7,7 0 0 0 -1.23,-4.61 c -0.3,-0.14 -0.59,-0.28 -0.81,-0.41 -1.33,-0.75 -1.91,-1.49 -2.69,-0.6 l 1.41,1.75 c 2.21,3.06 1.6,3.51 1.54,5.14 a 25.85,25.85 0 0 0 0.83,5.19 c 1.28,5.47 2.45,7.3 3.06,12.47 0.61,5.17 -0.43,8.64 0.3,8.93 0.73,0.29 2.2,-0.29 2.47,-4.43 0.27,-4.14 -1.56,-11.11 -2.85,-14.41 -1.29,-3.3 -2.29,-6.8 -2.03,-9.02 z"
             style="fill:#37474f"
             id="path217" />
          <path
             d="m 346.42,418.16 a 0.51,0.51 0 0 1 -0.26,0.14 12.37,12.37 0 0 0 -8.26,4.84 0.52,0.52 0 0 1 -0.73,0.06 0.51,0.51 0 0 1 -0.06,-0.72 13.4,13.4 0 0 1 8.84,-5.19 0.53,0.53 0 0 1 0.61,0.41 0.49,0.49 0 0 1 -0.14,0.46 z"
             style="fill:#ebebeb"
             id="path219" />
          <path
             d="m 345.77,413.85 a 0.61,0.61 0 0 1 -0.26,0.15 13.82,13.82 0 0 0 -8.7,5.28 0.52,0.52 0 0 1 -0.75,0.06 0.54,0.54 0 0 1 -0.06,-0.75 14.93,14.93 0 0 1 9.27,-5.63 0.53,0.53 0 0 1 0.5,0.89 z"
             style="fill:#ebebeb"
             id="path221" />
          <path
             d="m 345.86,409.1 a 0.5,0.5 0 0 1 -0.28,0.16 15.76,15.76 0 0 0 -9.73,5.94 0.58,0.58 0 0 1 -0.82,0.06 0.58,0.58 0 0 1 -0.07,-0.82 16.88,16.88 0 0 1 10.35,-6.31 0.57,0.57 0 0 1 0.7,0.43 0.56,0.56 0 0 1 -0.15,0.54 z"
             style="fill:#ebebeb"
             id="path223" />
          <path
             d="m 345.17,405.05 a 0.55,0.55 0 0 1 -0.28,0.15 15.39,15.39 0 0 0 -9.51,5.8 0.57,0.57 0 0 1 -0.8,0.06 0.56,0.56 0 0 1 -0.07,-0.8 16.43,16.43 0 0 1 10.13,-6.17 0.57,0.57 0 0 1 0.68,0.43 0.55,0.55 0 0 1 -0.15,0.53 z"
             style="fill:#ebebeb"
             id="path225" />
          <path
             d="m 343.69,401.1 a 0.71,0.71 0 0 1 -0.28,0.16 15.3,15.3 0 0 0 -9.52,5.8 0.57054798,0.57054798 0 1 1 -0.86,-0.75 16.46,16.46 0 0 1 10.12,-6.17 0.58,0.58 0 0 1 0.69,0.43 0.6,0.6 0 0 1 -0.15,0.53 z"
             style="fill:#ebebeb"
             id="path227" />
          <polygon
             points="316.77,400.05 323.71,413.16 343.25,403.81 333.59,387.46 322.85,396.24 "
             style="fill:#c8856a"
             id="polygon229" />
          <path
             d="m 355.48,328.81 c 0,0 -39.1,-6.47 -55.83,-6.37 -17.07,0.11 -18.65,12.93 -14.38,20.78 8.18,15 36.62,46.91 36.62,46.91 0,0 9.55,-4.38 12.48,-12.64 l -6.48,-14.88 20.7,6.59 2.39,-2.91 z"
             style="fill:#455a64"
             id="path231" />
          <path
             d="m 324.48,350 a 145.45,145.45 0 0 1 8.62,14.32 l -5.21,-1.66 c -5.88,-14 -7.09,-18.08 -16.48,-24.64 0,-0.02 6.74,2.48 13.07,11.98 z"
             style="fill:#37474f"
             id="path233" />
          <path
             d="m 355.48,328.81 60.27,11.05 c 0,0 4.77,22.22 0.16,36.1 -4.51,13.58 -17.9,17.47 -24.34,18 -9.22,0.71 -19.91,-2.14 -19.91,-2.14 a 51.18,51.18 0 0 1 -10.7,6.29 c -5.38,2.15 -28.95,12 -28.95,12 0,0 -6.63,-5.61 -6,-17.28 L 351,366.29 Z"
             style="fill:#455a64"
             id="path235" />
          <path
             d="m 332,410.1 c 0,0 -1.28,-0.59 -3.12,-4.06 6.1,-1.44 26.17,-9.29 32.65,-12 11.54,-4.89 15.11,-10.06 15.11,-10.06 0,0 0.07,3.44 -5,7.85 a 51.18,51.18 0 0 1 -10.7,6.29 C 355.58,400.23 332,410.1 332,410.1 Z"
             style="fill:#37474f"
             id="path237" />
          <path
             d="m 384,389.58 c 5.77,0.93 21.29,-1.93 26.34,-12.87 4.94,-10.71 3.27,-23.5 2.17,-34.5 l 1.86,0.44 3.27,0.88 c 0.86,9.78 1.82,21.33 -1,32.29 -3.6,13.84 -18.59,17.61 -25,18.11 -9.22,0.71 -19.91,-2.14 -19.91,-2.14 l 3.06,-4.74 a 38.89,38.89 0 0 0 9.21,2.53 z"
             style="fill:#37474f"
             id="path239" />
          <path
             d="m 348.3,369.14 c 0,0 1.08,-1.29 3.37,-4 2.29,-2.71 6,-7.75 15.42,-7.38 9.42,0.37 27.65,2 27.65,2 0,0 -19,-3.23 -25.52,-4.32 -6.52,-1.09 -10.92,-0.34 -14.66,3 -3.74,3.34 -9.53,9.61 -9.53,9.61 z"
             style="fill:#37474f"
             id="path241" />
          <path
             d="m 361,357 a 18.83,18.83 0 0 1 -4.43,-13.13 c 0,0 -2.27,8.63 1.36,14.91 z"
             style="fill:#37474f"
             id="path243" />
          <path
             d="m 292.15,406.88 c -4.6,1.82 -7.44,3.64 -9.57,6.42 -2.13,2.78 -2.77,5.58 -0.75,8.95 2.02,3.37 5.73,7.31 10.13,7.05 4.4,-0.26 7.11,-1.35 11.2,-3.57 z"
             style="fill:#263238"
             id="path245" />
          <path
             d="m 328.89,410.77 c 0.07,1.38 -5.74,4.13 -11.77,7 -6.47,3.08 -8.06,5.09 -13.34,7.69 -6,3 -8.33,3.14 -13,1.84 -4.67,-1.3 -10.46,-8 -6.43,-14.17 3.28,-5 7.52,-6.4 14,-8.1 a 121.32,121.32 0 0 0 15.08,-4.87 c 4.66,-1.81 8.5,-5.06 9.46,-3.93 -0.67,0.32 -5.54,3.33 -4.62,4.15 0.23,0.42 0.92,0.29 2.12,-0.21 a 2,2 0 0 1 1.67,-0.08 3.23,3.23 0 0 1 1.21,1.45 38.25,38.25 0 0 1 1.46,3.69 c 0.36,0.85 0.21,0.36 0.54,1.22 0.33,0.86 1.1,2.42 1,3.3 -0.06,0.53 -0.44,0.7 -0.85,1 -0.41,0.3 -1,0.57 -1.37,0.87 -0.16,0.12 -0.43,0.52 -0.35,0.72 0.08,0.2 1,0.18 1.34,0 0.34,-0.18 0.94,-0.29 1.36,-0.45 0.42,-0.16 1.43,-0.62 2.49,-1.12 z"
             style="fill:#61c0bf"
             id="path247" />
          <path
             d="m 328.89,410.77 c 0.07,1.38 -5.74,4.13 -11.77,7 -6.47,3.08 -8.06,5.09 -13.34,7.69 -6,3 -8.33,3.14 -13,1.84 -4.67,-1.3 -10.46,-8 -6.43,-14.17 3.28,-5 7.52,-6.4 14,-8.1 a 121.32,121.32 0 0 0 15.08,-4.87 c 4.66,-1.81 8.5,-5.06 9.46,-3.93 -0.67,0.32 -5.54,3.33 -4.62,4.15 0.23,0.42 0.92,0.29 2.12,-0.21 a 2,2 0 0 1 1.67,-0.08 3.23,3.23 0 0 1 1.21,1.45 38.25,38.25 0 0 1 1.46,3.69 c 0.36,0.85 0.21,0.36 0.54,1.22 0.33,0.86 1.1,2.42 1,3.3 -0.06,0.53 -0.44,0.7 -0.85,1 -0.41,0.3 -1,0.57 -1.37,0.87 -0.16,0.12 -0.43,0.52 -0.35,0.72 0.08,0.2 1,0.18 1.34,0 0.34,-0.18 0.94,-0.29 1.36,-0.45 0.42,-0.16 1.43,-0.62 2.49,-1.12 z"
             style="opacity:0.4"
             id="path249" />
          <path
             d="m 305.85,424.47 c -0.87,0.44 -6.35,3 -8.06,1.46 -1.87,-1.66 2.53,-4.29 2.53,-4.29 0,0 0.67,-4.13 -4.32,-10.21 -0.86,0.67 -4.46,0.64 -4.41,-1.48 0.05,-2.12 6.08,-4.72 6.17,-4.76 -6.18,1.65 -10.24,3.08 -13.42,7.95 -4,6.17 1.75,12.87 6.43,14.17 4.68,1.3 7,1.13 13,-1.84 0.61,-0.3 1.55,-0.69 2.08,-1 z"
             style="opacity:0.3"
             id="path251" />
          <path
             d="m 299.73,421.23 c -2.29,0.76 -0.72,2.83 2.63,2.16 5,-1 9.18,-3.85 14.76,-5.61 6,-2.88 12.17,-5.56 11.78,-7.09 -1.08,0.41 -3.39,1.37 -3.39,1.37 -0.45,0.19 -1.62,0.63 -1.62,0.63 -4.57,2 -9.63,5.15 -14.58,6.49 -4.31,1.18 -7.31,1.28 -9.58,2.05 z"
             style="fill:#37474f"
             id="path253" />
          <path
             d="m 296.33,412.21 c 2.09,-1.21 2.46,-2.24 6.56,-4.12 4.1,-1.88 11,-5.91 15.31,-8.41 a 54.78,54.78 0 0 0 4.65,-3.44 c -0.71,-0.81 -3.32,-0.06 -5.94,1.59 -2.62,1.65 -4.2,2.69 -6.79,4 -5,3 -10.77,5.06 -13.64,6.91 -2.87,1.85 -2.24,4.68 -0.15,3.47 z"
             style="fill:#37474f"
             id="path255" />
          <path
             d="m 296,411.66 a 0.57,0.57 0 0 0 0.12,0.18 18.25,18.25 0 0 1 3.94,10.16 0.6,0.6 0 0 0 0.57,0.57 0.51,0.51 0 0 0 0.46,-0.59 19.34,19.34 0 0 0 -4.25,-10.89 0.49,0.49 0 0 0 -0.74,0 0.62,0.62 0 0 0 -0.1,0.57 z"
             style="fill:#f0f0f0"
             id="path257" />
          <path
             d="m 300.08,408.7 a 1,1 0 0 0 0.1,0.17 24.91,24.91 0 0 1 4.82,11.94 0.6,0.6 0 0 0 0.59,0.55 0.51,0.51 0 0 0 0.44,-0.6 25.74,25.74 0 0 0 -5.16,-12.65 0.48,0.48 0 0 0 -0.73,-0.05 0.57,0.57 0 0 0 -0.06,0.64 z"
             style="fill:#f0f0f0"
             id="path259" />
          <path
             d="m 309,420.39 a 0.58,0.58 0 0 0 0.48,0.36 0.5,0.5 0 0 0 0.51,-0.54 c -0.24,-7.33 -5,-14.2 -5.18,-14.44 a 0.49,0.49 0 0 0 -0.74,0 0.63,0.63 0 0 0 0.05,0.81 c 0.05,0.05 4.61,6.77 4.82,13.58 a 1,1 0 0 0 0.06,0.23 z"
             style="fill:#f0f0f0"
             id="path261" />
          <path
             d="m 312.76,418 a 0.58,0.58 0 0 0 0.47,0.36 0.49,0.49 0 0 0 0.52,-0.53 21.56,21.56 0 0 0 -5.47,-13.7 0.49,0.49 0 0 0 -0.73,0 0.64,0.64 0 0 0 0.09,0.81 20.66,20.66 0 0 1 5.06,12.78 1,1 0 0 0 0.06,0.28 z"
             style="fill:#f0f0f0"
             id="path263" />
          <path
             d="m 317.62,415.94 a 0.59,0.59 0 0 0 0.47,0.36 0.48,0.48 0 0 0 0.51,-0.52 c 0,-7.62 -5.38,-13.52 -5.62,-13.76 a 0.49,0.49 0 0 0 -0.74,0 0.62,0.62 0 0 0 0.08,0.81 c 0.05,0.06 5.22,5.76 5.24,12.84 a 0.58,0.58 0 0 0 0.06,0.27 z"
             style="fill:#ebebeb"
             id="path265" />
        </g>
        <g
           id="freepik--Top--inject-51">
          <g
             id="freepik--Arm--inject-51">
            <path
               d="m 289.74,277.24 36.37,4.3 c 0,0 10.06,-4.51 16.32,-7.22 21.69,-9.41 25.05,-11.14 32.06,-11.05 l -11.83,24.86 c 0,0 -14.08,6 -27.05,10.85 -6.76,2.54 -6.68,3 -14.14,1.07 -5.55,-1.42 -8.42,-2.17 -16.48,-4.36 -9.88,-2.68 -16.55,-4.26 -16.55,-4.26 z"
               style="fill:#c8856a"
               id="path268" />
            <path
               d="m 293.9,278.05 c -6.64,-1.34 -9.22,-1.29 -11,-5.42 -1.78,-4.13 -2.54,-4.91 -3.29,-5.69 -0.75,-0.78 -5.61,-3.54 -7.61,-4.64 -1.52,-0.81 -2.91,-0.72 -5.67,-1.32 -1.37,-0.3 -2.95,-0.74 -4.31,-1.14 a 12.44,12.44 0 0 0 -3.42,-0.95 c -1.53,0 -1.18,2.2 -0.13,3.23 a 12.89,12.89 0 0 0 4.28,2.37 c 1.1,0.45 3.73,1.47 3.73,1.47 -0.4,0.9 -1.42,2.54 -1.4,3.65 0.02,1.11 0.19,1.55 2.17,3.46 a 2.44,2.44 0 0 0 -0.66,1.87 5.49,5.49 0 0 0 1.53,2.31 2.54,2.54 0 0 0 -0.55,1.51 c 0,0.88 1.51,2.56 3,3.86 1.57,1.7 2.89,4.3 4.33,5.64 1.44,1.34 3.52,1.74 6.94,2 3.42,0.26 12.23,2.46 12.23,2.46 0,0 6.27,-13.38 -0.17,-14.67 z"
               style="fill:#c8856a"
               id="path270" />
            <path
               d="m 277.25,269.12 a 8.44,8.44 0 0 1 -4.72,-2.71 c -1.17,-1.42 -2.37,-3.07 -2.91,-2.85 -0.91,0.37 -1.85,2.86 -0.16,5.34 1.69,2.48 4.18,4.83 4.6,5.54 a 13.22,13.22 0 0 1 0.62,4.35 7.79,7.79 0 0 0 5.82,6.74 7.18,7.18 0 0 1 -4.9,-2.14 c -2.5,-2.31 -2.07,-5.95 -2.33,-7.48 -0.26,-1.53 -0.31,-1.84 -2.21,-3.82 -1.9,-1.98 -3.95,-4.11 -3.14,-7.22 0.81,-3.11 2.13,-2.38 2.79,-1.76 0.66,0.62 3.4,5.3 6.54,6.01 z"
               style="fill:#af6152"
               id="path272" />
            <path
               d="m 266.45,266 1.81,0.43 -0.34,0.67 a 2.73,2.73 0 0 0 -2.55,1.16 c 0.24,-0.63 0.76,-1.63 1.08,-2.26 z"
               style="fill:#af6152"
               id="path274" />
            <path
               d="m 267.22,273.07 c 0.64,0.65 2.72,2.54 3.14,2.93 0.42,0.39 1.26,-0.17 1.39,-1.32 a 3.78,3.78 0 0 0 -0.55,-2.7 4,4 0 0 1 1,2.71 c -0.11,1.48 -0.9,2 -1.5,2.09 -0.6,0.09 -2.11,-2.33 -3.48,-3.71 z"
               style="fill:#af6152"
               id="path276" />
            <path
               d="m 268.09,277.25 c 0.47,0.5 1.22,1.06 2.54,2.4 0.77,0.78 1.23,1.3 1.77,1 a 2.69,2.69 0 0 0 0.36,-3.06 9.17,9.17 0 0 0 -1.31,-1.72 l 0.37,-0.4 a 7.11,7.11 0 0 1 1.83,2.85 c 0.37,1.47 -0.47,3.12 -1.23,3 -0.76,-0.12 -1.16,-0.54 -2.21,-1.69 -1.05,-1.15 -2.12,-2.38 -2.12,-2.38 z"
               style="fill:#af6152"
               id="path278" />
            <path
               d="m 272,281 c 0.27,0.35 0.46,1.33 -0.18,1.65 a 1.55,1.55 0 0 1 -1.27,0 1.32,1.32 0 0 0 1.5,0.3 c 0.78,-0.39 0.79,-1.37 0.61,-2.11 z"
               style="fill:#af6152"
               id="path280" />
          </g>
          <path
             d="m 416.07,303.71 c -1.35,-19.72 -1.3,-28.24 -3.25,-34.7 -3,-0.88 -9.45,-2.68 -9.45,-2.68 0,0 -15.54,-0.66 -21.09,-3 l -7.79,-0.3 c -4.22,4.06 -15.34,12.72 -18.95,20.93 -2.41,5.49 -2.35,13.56 4.24,19 a 100,100 0 0 0 1,13.26 c 0,0 -2,6.29 -4.52,12.47 0.94,9.7 15.09,17 32.36,21.65 18.54,5 29.88,-2.48 29.88,-2.48 0,0 -1.09,-24.61 -2.43,-44.15 z"
             style="fill:#61c0bf"
             id="path283" />
          <path
             d="m 416.07,303.71 c -1.35,-19.72 -1.3,-28.24 -3.25,-34.7 -3,-0.88 -9.45,-2.68 -9.45,-2.68 0,0 -15.54,-0.66 -21.09,-3 l -7.79,-0.3 c -4.22,4.06 -15.34,12.72 -18.95,20.93 -2.41,5.49 -2.35,13.56 4.24,19 a 100,100 0 0 0 1,13.26 c 0,0 -2,6.29 -4.52,12.47 0.94,9.7 15.09,17 32.36,21.65 18.54,5 29.88,-2.48 29.88,-2.48 0,0 -1.09,-24.61 -2.43,-44.15 z"
             style="opacity:0.6;fill:#ffffff"
             id="path285" />
          <path
             d="m 375.37,306.47 c 0,0 4.67,6.28 14.5,5.59 10.14,-0.71 12.46,-9 12.46,-9 0,0 0,11 -12.15,11.83 a 14.57,14.57 0 0 1 -14.81,-8.42 z"
             style="opacity:0.3;fill:#61c0bf"
             id="path287" />
          <path
             d="m 387,361.14 v 1.14 a 3.22,3.22 0 0 1 -1.61,2.8 l -30.78,17.72 a 3.23,3.23 0 0 1 -3.22,0 l -56.48,-32.61 a 3.23,3.23 0 0 1 -1.62,-2.8 v -0.78 L 353,381.08 Z"
             style="fill:#ebebeb"
             id="path289" />
          <path
             d="m 293.29,346.61 33.49,-19.34 a 1.93,1.93 0 0 1 1.92,0 l 58.1,33.55 a 0.42,0.42 0 0 1 0,0.74 L 353,381.08 Z"
             style="fill:#fafafa"
             id="path291" />
          <polygon
             points="371.37,367.82 318.55,337.33 300.4,347.69 353.31,378.24 "
             style="fill:#e0e0e0"
             id="polygon293" />
          <polygon
             points="346.11,339.98 362.18,349.26 361.85,349.45 353,354.56 337.25,345.47 336.93,345.28 "
             style="fill:#e0e0e0"
             id="polygon295" />
          <polygon
             points="353,354.56 337.25,345.47 346.11,340.36 361.85,349.45 "
             style="fill:#e6e6e6"
             id="polygon297" />
          <path
             d="m 353,381.08 v 2.15 a 3.16,3.16 0 0 1 -1.61,-0.43 l -56.48,-32.61 a 3.23,3.23 0 0 1 -1.62,-2.8 v -0.78 z"
             style="fill:#ebebeb"
             id="path299" />
          <g
             style="opacity:0.5;mix-blend-mode:multiply"
             id="g303">
            <path
               d="m 353,381.08 v 2.15 a 3.16,3.16 0 0 1 -1.61,-0.43 l -56.48,-32.61 a 3.23,3.23 0 0 1 -1.62,-2.8 v -0.78 z"
               style="fill:#e0e0e0"
               id="path301" />
          </g>
          <path
             d="m 352.09,381.56 a 3.83,3.83 0 0 1 -3.3,-0.26 l -56.23,-32.46 a 3.82,3.82 0 0 1 -1.86,-2.68 l -6.16,-36.71 a 4.46,4.46 0 0 1 -0.05,-0.63 3.85,3.85 0 0 1 1.13,-2.72 l 58.44,33.75 a 2.82,2.82 0 0 1 1.37,2 z"
             style="fill:#61c0bf"
             id="path305" />
          <g
             style="opacity:0.7"
             id="g309">
            <path
               d="m 352.09,381.56 a 3.83,3.83 0 0 1 -3.3,-0.26 l -56.23,-32.46 a 3.82,3.82 0 0 1 -1.86,-2.68 l -6.16,-36.71 a 4.46,4.46 0 0 1 -0.05,-0.63 3.85,3.85 0 0 1 1.13,-2.72 l 58.44,33.75 a 2.82,2.82 0 0 1 1.37,2 z"
               style="fill:#ffffff"
               id="path307" />
          </g>
          <path
             d="m 353,381.08 -0.39,0.22 a 5,5 0 0 1 -0.52,0.26 l -6.66,-39.73 a 2.82,2.82 0 0 0 -1.37,-2 L 285.62,306.1 a 4.57,4.57 0 0 1 0.78,-0.59 l 58.6,33.81 a 2.81,2.81 0 0 1 1.37,2 z"
             style="fill:#fafafa"
             id="path311" />
          <path
             d="m 320.42,347.67 c -0.42,-2.46 -2.95,-5.73 -5.67,-7.3 -2.72,-1.57 -4.59,-0.84 -4.18,1.61 0.41,2.45 2.95,5.73 5.67,7.3 2.72,1.57 4.59,0.84 4.18,-1.61 z"
             style="fill:#61c0bf"
             id="path313" />
          <path
             d="m 433.32,325 c -0.6,-4 -6.44,-40.7 -8.18,-45.66 -1.88,-5.36 -3.93,-7.87 -12.25,-10.31 -7.76,5.31 -6.23,22.8 -5.23,26.82 l 6.06,28.87 c 0,0 -8.64,4.11 -15.61,7.33 -6,2.74 -10.14,5.87 -17.12,6.56 -6.98,0.69 -8.3,0.31 -14.28,2.91 a 43.75,43.75 0 0 0 -6,3.39 c -2.11,2.22 -4.71,3.92 -7,6 -1.71,1.14 -0.16,2 1.18,2.07 3.71,0.13 6.71,-2.74 10.05,-3.91 a 12.43,12.43 0 0 0 -0.65,3.68 c 0,1 -0.27,2.21 0.59,3 a 7.43,7.43 0 0 0 2.08,0.91 1.46,1.46 0 0 0 0.4,1 2.47,2.47 0 0 0 1.77,0.5 9.22,9.22 0 0 0 1,-0.13 1.83,1.83 0 0 0 1.1,1.46 8,8 0 0 0 4.27,0.23 c 0.21,-0.08 1.81,-0.9 2.28,-1.14 a 4.13,4.13 0 0 0 1.6,-1 c 0.35,-0.52 -0.6,-1.74 -1.42,-1.89 a 8.71,8.71 0 0 0 -2.72,0.12 9.43,9.43 0 0 0 0.84,-2.32 c 0.77,-1.17 6.09,0.14 10.86,-0.59 3.59,-0.55 5.75,-3.21 7.37,-3.91 10.76,-4.67 25,-7.5 32,-9.58 8.75,-2.63 8.13,-7.05 7.01,-14.41 z"
             style="fill:#c8856a"
             id="path315" />
          <path
             d="m 365,349 a 10.49,10.49 0 0 1 2,-4.77 c -1.86,0.63 -3.21,5.26 -3.21,5.26 z"
             style="fill:#af6152"
             id="path317" />
          <path
             d="m 367,356.58 a 11.28,11.28 0 0 1 0,-3 24.21,24.21 0 0 1 0.44,-2.92 12.76,12.76 0 0 1 0.85,-2.85 5.35,5.35 0 0 1 1.82,-2.32 4.06,4.06 0 0 0 -0.83,1.18 8,8 0 0 0 -0.58,1.31 19.79,19.79 0 0 0 -0.71,2.8 c -0.2,0.95 -0.38,1.91 -0.56,2.86 a 23.51,23.51 0 0 0 -0.43,2.94 z"
             style="fill:#af6152"
             id="path319" />
          <path
             d="m 370.18,357.92 a 13.49,13.49 0 0 1 0.06,-2.91 21.64,21.64 0 0 1 0.49,-2.86 19.73,19.73 0 0 1 0.84,-2.78 5.61,5.61 0 0 1 1.53,-2.45 3.72,3.72 0 0 0 -0.67,1.24 q -0.26,0.66 -0.45,1.35 c -0.25,0.92 -0.49,1.84 -0.7,2.77 -0.43,1.86 -0.84,3.72 -1.1,5.64 z"
             style="fill:#af6152"
             id="path321" />
          <path
             d="m 378,355.63 a 5.05,5.05 0 0 0 -1.2,0.15 c -0.39,0.08 -0.66,0.27 -1.15,0.42 l 0.2,-0.31 a 1.14,1.14 0 0 1 -0.09,0.57 1.33,1.33 0 0 1 -0.28,0.44 1.75,1.75 0 0 1 -0.83,0.52 4.09,4.09 0 0 0 0.51,-0.74 1.77,1.77 0 0 0 0.12,-0.37 1.47,1.47 0 0 0 0,-0.33 v -0.23 l 0.23,-0.08 a 3.49,3.49 0 0 1 1.14,-0.22 2.41,2.41 0 0 1 1.35,0.18 z"
             style="fill:#af6152"
             id="path323" />
          <path
             d="m 404.58,212.45 c 7.37,-2.29 14.67,6.57 13.79,13.71 3.19,2.44 5,11.09 0.84,15.38 2.42,4.45 -1.11,13.16 -7.19,14 0.88,3.86 -4.17,9.55 -10.31,9.81 -8.23,0.35 -6.19,-2.57 -4.55,-11.62 0.84,-4.43 7.42,-41.28 7.42,-41.28 z"
             style="fill:#263238"
             id="path325" />
          <path
             d="m 378.48,277 c -7.15,-1.15 -3.78,-5.64 1.32,-10.84 l 11.28,-3.16 9.2,-0.95 c -0.06,3.14 1.83,3.8 3.64,4.49 -4.87,5.05 -16.92,11.8 -25.44,10.46 z"
             style="fill:#c8856a"
             id="path327" />
          <path
             d="m 381.83,265.55 c -3,6.91 -8.65,6.69 -10.84,6.27 -0.89,4.33 -4.53,6.46 -8.3,8 0.85,4.29 -2.27,7.1 -5.36,9.4 a 6.3,6.3 0 0 1 0.76,5.42 c -0.58,2.39 -4.28,6.57 -3.58,9.4 -4.21,-4.48 -4.19,-10.56 -0.58,-15.35 -0.7,-4.2 -1.2,-8.38 2.7,-11 -1,-5.4 1.6,-9.37 7.05,-10.28 0.12,-4.15 2.83,-6.61 7.4,-7.33 -1,-7.22 6.39,-10.09 11,-10.23 -0.06,3.14 0.42,9.87 0.28,13 z"
             style="fill:#263238"
             id="path329" />
          <path
             d="m 374.39,207.27 c 9.05,-4.31 23.75,-2.45 25.95,4 3.93,-0.62 7,1.74 9.57,6.7 a 25.42,25.42 0 0 1 0.59,20.93 41.61,41.61 0 0 1 -10.1,15.31 l -0.26,-10.65 a 10.74,10.74 0 0 1 -2.65,-0.52 c -4.72,-1.63 -20.25,-8.23 -23.88,-14.56 0,0 -7.13,3.82 -7.14,3.81 -7.47,-7.04 -4.47,-19.13 7.92,-25.02 z"
             style="fill:#37474f"
             id="path331" />
          <path
             d="m 367.67,223.51 c -0.48,1.77 -2,5.66 -1.75,17.78 0.24,11.55 3.71,15.25 6.35,16.77 2,1.16 6.3,1.59 9.58,1.28 v 9.85 c 0,0 -0.68,1.72 6.41,2.3 10.76,0.89 12,-4.76 12,-4.76 l 0.28,-17.5 c 0,0 2.89,1.85 6.22,-0.94 2,-1.66 3.64,-6.66 1.15,-9.31 -2.49,-2.65 -5.17,-1.91 -7.37,1.82 a 2,2 0 0 1 -3.56,-0.71 c -1,-4.39 0.37,-8.94 -5.65,-11.52 a 25.17,25.17 0 0 1 -12,-9.57 c -4.04,3.13 -9.33,4.87 -11.66,4.51 z"
             style="fill:#c8856a"
             id="path333" />
          <path
             d="m 386.4,236.48 a 2.15,2.15 0 0 1 -2,2 1.84,1.84 0 1 1 0,-3.68 1.86,1.86 0 0 1 2,1.68 z"
             style="fill:#263238"
             id="path335" />
          <path
             d="m 372.77,235.92 a 1.84,1.84 0 0 1 -1.84,1.84 2.24,2.24 0 0 1 -2.06,-2.06 c 0,-1 1.05,-1.61 2.06,-1.61 a 1.83,1.83 0 0 1 1.84,1.83 z"
             style="fill:#263238"
             id="path337" />
          <path
             d="m 383.37,247.56 -5.61,1.44 a 2.85,2.85 0 0 0 3.47,2.18 3,3 0 0 0 2.14,-3.62 z"
             style="fill:#af6152"
             id="path339" />
          <path
             d="m 383,248.7 a 2.86,2.86 0 0 0 -3.18,2.46 2.77,2.77 0 0 0 1.43,0 3,3 0 0 0 2.16,-2.38 2.73,2.73 0 0 0 -0.41,-0.08 z"
             style="fill:#ffa8a7"
             id="path341" />
          <path
             d="m 368.18,232.59 3.8,-1.31 a 1.94,1.94 0 0 0 -2.49,-1.29 2.12,2.12 0 0 0 -1.31,2.6 z"
             style="fill:#263238"
             id="path343" />
          <path
             d="m 384.37,231.31 3.37,2.19 a 1.92,1.92 0 0 0 -0.51,-2.75 2.11,2.11 0 0 0 -2.86,0.56 z"
             style="fill:#263238"
             id="path345" />
          <path
             d="m 378.82,233.66 -1.25,11.93 -6.24,-2.09 c 1.96,-3.34 4.44,-7.5 7.49,-9.84 z"
             style="fill:#af6152"
             id="path347" />
          <path
             d="m 381.85,259.34 c 4.57,-0.85 13.11,-2.92 14.6,-9.48 0,0 0.4,3.51 -3.22,7.05 -3.78,3.71 -11.38,5.09 -11.38,5.09 z"
             style="fill:#af6152"
             id="path349" />
        </g>
      </g>
    </g>
    <g
       id="g369">
      <g
         id="g367">
        <g
           id="freepik--speech-bubble--inject-51">
          <path
             d="m 388.74,189.47 3.26,-6.13 -2.62,-7.58 v -4.64 l 8,4.64 v 4.64 l -3.46,6 a 0.52,0.52 0 0 1 -0.23,0.21 v 0 z"
             style="fill:#61c0bf"
             id="path354" />
          <path
             d="m 388.74,189.47 3.26,-6.13 -2.62,-7.58 v -4.64 l 8,4.64 v 4.64 l -3.46,6 a 0.52,0.52 0 0 1 -0.23,0.21 v 0 z"
             style="opacity:0.2"
             id="path356" />
          <path
             d="m 370.76,125.63 a 5.34,5.34 0 0 1 2.41,-4.18 l 2,-1.13 a 5.36,5.36 0 0 1 4.81,0 L 410,137.71 a 5.34,5.34 0 0 1 2.41,4.17 v 42.39 a 5.34,5.34 0 0 1 -2.41,4.17 l -2,1.13 a 5.32,5.32 0 0 1 -4.82,0 l -10.87,-6.25 -3.44,6 a 0.52,0.52 0 0 1 -0.93,-0.09 l -3.64,-10.51 -11.18,-6.51 a 5.32,5.32 0 0 1 -2.41,-4.17 z"
             style="fill:#61c0bf"
             id="path358" />
          <path
             d="m 412.42,184.27 a 5.34,5.34 0 0 1 -2.41,4.17 l -2,1.13 a 5.41,5.41 0 0 1 -4.41,0.19 c 1.14,0.43 2,-0.21 2,-1.58 v -42.39 a 5,5 0 0 0 -0.7,-2.37 l 6.77,-3.91 a 4.85,4.85 0 0 1 0.71,2.37 z"
             style="opacity:0.2"
             id="path360" />
          <path
             d="m 370.84,124.94 c 0.28,-1 1.21,-1.35 2.32,-0.71 l 30.07,17.4 a 4.74,4.74 0 0 1 1.7,1.79 l 6.77,-3.91 a 4.79,4.79 0 0 0 -1.69,-1.79 L 380,120.32 a 5.38,5.38 0 0 0 -4.82,0 l -2,1.14 a 5.33,5.33 0 0 0 -2.34,3.48 z"
             style="opacity:0.3;fill:#ffffff"
             id="path362" />
        </g>
        <polygon
           points="398.77,164.43 396.83,160.78 390.67,164.81 390.67,142.88 386.66,140.56 386.66,163.02 381.39,154.46 378.56,156.59 388.06,171.45 "
           style="fill:#fafafa"
           id="polygon365" />
      </g>
    </g>
  </g>
</svg>
